<svg xmlns="http://www.w3.org/2000/svg" xmlns:xlink="http://www.w3.org/1999/xlink" width="500" height="500"><circle fill="#002B4D" cx="250" cy="250" r="250"/><path fill="#E0A82D" d="M250 40.827l7.211 22.193h23.335l-18.878 13.716 7.211 22.194L250 85.213 231.121 98.93l7.211-22.194-18.878-13.716h23.335z"/><defs><circle id="a" cx="250" cy="250" r="250"/></defs><clipPath id="b"><use xlink:href="#a" overflow="visible"/></clipPath><g clip-path="url(#b)"><path fill="#5C4841" d="M217.109 408.835h65.782V500h-65.782z"/><path fill="#4A3A34" d="M217.109 474.151c22.471-10.935 52.714-17.252 65.782-19.63v-45.053l-65.782-4.335v69.018z"/><path d="M125.125 403.041l218.339-76.901 18.786 45.992-255.912 76.901zm31.411-76.901l155.516-76.9 18.786 45.992-193.088 76.9zm31.413-76.9l92.691-76.901 18.786 45.992-130.264 76.901zm31.411-76.901L250 97.329l18.014 44.102-67.44 76.9z" fill="#007200"/><path d="M125.125 403.041l-18.787 45.992h287.324l-18.787-45.992zm237.125-30.909l-18.786-45.992H156.536l-18.786 45.992zM187.949 249.24l-18.787 45.992h161.676l-18.786-45.992zm31.411-76.901l-18.786 45.992h98.852l-18.786-45.992zm12.626-30.908h36.028L250 97.329z" fill="#9CCF36"/><path fill="#7bb419" d="M250 403.041v45.992h143.662l-18.787-45.992zm112.25-30.909l-18.786-45.992H250v45.992zm-31.412-76.9l-18.786-45.992H250v45.992zM250 172.339v45.992h49.426l-18.786-45.992zm18.014-30.908L250 97.329v44.102z"/></g><g fill="#FFF"><circle cx="66.472" cy="190.914" r="5.173"/><circle cx="42.526" cy="209.968" r="2.228"/><circle cx="86.503" cy="215.945" r="6.204"/><circle cx="190.178" cy="225.62" r="3.88"/><circle cx="171.221" cy="191.663" r="1.922"/><circle cx="150.804" cy="226.581" r="4.841"/><circle cx="123.904" cy="212.346" r="2.606"/><circle cx="138.992" cy="182.434" r="6.694"/><circle cx="102.573" cy="194.015" r="4.275"/><circle cx="264.562" cy="172.004" r="5.264"/><circle cx="289.615" cy="167.058" r="2.317"/><circle cx="311.472" cy="226.914" r="5.173"/><circle cx="256.744" cy="219.187" r="2.446"/><circle cx="230.674" cy="197.117" r="6.376"/><circle cx="210.684" cy="145.126" r="3.385"/><circle cx="194.735" cy="171.178" r="4.437"/><circle cx="247.794" cy="128.236" r="2.496"/><circle cx="345.472" cy="202.914" r="5.173"/><circle cx="299.466" cy="195.908" r="5.168"/><circle cx="325.549" cy="178.992" r="3.251"/><circle cx="347.81" cy="157.252" r="2.511"/><circle cx="308.726" cy="141.168" r="4.428"/><circle cx="294.472" cy="118.914" r="5.173"/><circle cx="393.472" cy="171.914" r="5.173"/><circle cx="379.612" cy="141.054" r="4.314"/><circle cx="417.746" cy="117.188" r="3.448"/><circle cx="350.472" cy="118.914" r="5.173"/><circle cx="449.84" cy="128.282" r="2.542"/><circle cx="368.466" cy="231.908" r="5.168"/><circle cx="345.549" cy="239.992" r="3.251"/><circle cx="390.81" cy="246.252" r="2.511"/></g></svg>