<svg xmlns="http://www.w3.org/2000/svg" width="354.406" height="500"><path fill="#9DCD43" d="M354.406 177.207C354.406 79.347 275.072 0 177.228 0 79.327 0 0 79.347 0 177.207c0 16.543 2.413 32.435 6.65 47.664l-.135-.049s16.318 106.846 169.854 274.569c141.84-144.973 171.343-273.788 171.343-273.788l-.143.037c4.327-15.417 6.837-31.584 6.837-48.433zm-177.178-70.153c38.716 0 70.117 31.408 70.117 70.154 0 38.712-31.4 70.149-70.117 70.149-38.765 0-70.145-31.437-70.145-70.149 0-38.746 31.379-70.154 70.145-70.154z"/></svg>